{"title":"See.You.in.YouTube.avi","uid":14159459,"size":730361856,"categoryP":"video","categoryS":"movies","magnet":"?xt=urn:btih:14555cc2eeb2f10616ddd5889d64af3b1f966003&amp;dn=See.You.in.YouTube.avi&amp;tr=udp%3A%2F%2Ftracker.leechers-paradise.org%3A6969&amp;tr=udp%3A%2F%2Fzer0day.ch%3A1337&amp;tr=udp%3A%2F%2Fopen.demonii.com%3A1337&amp;tr=udp%3A%2F%2Ftracker.coppersurfer.tk%3A6969&amp;tr=udp%3A%2F%2Fexodus.desync.com%3A6969","seeders":0,"leechers":0,"uploader":null,"files":1,"time":1459701404,"description":"Two life-long but competitive friends fall for the same guy.\r\n\r\n\r\nFormat                                   : AVI\r\nFormat/Info                              : Audio Video Interleave\r\nFile size                                : 697 MiB\r\nDuration                                 : 1h 44mn\r\nOverall bit rate mode                    : Variable\r\nOverall bit rate                         : 935 Kbps\r\nWriting application                      : VirtualDubMod 1.5.10.2 (build 2540/release)\r\nWriting library                          : VirtualDubMod build 2540/release\r\n\r\nVideo\r\nID                                       : 0\r\nFormat                                   : MPEG-4 Visual\r\nFormat profile                           :   \r\nFormat settings, BVOP                    : 2\r\nFormat settings, QPel                    : No\r\nFormat settings, GMC                     : No warppoints\r\nFormat settings, Matrix                  : Default (H.263)\r\nMuxing mode                              : Packed bitstream\r\nCodec ID                                 : XVID\r\nCodec ID/Hint                            : XviD\r\nDuration                                 : 1h 44mn\r\nBit rate                                 : 793 Kbps\r\nWidth                                    : 608 pixels\r\nHeight                                   : 336 pixels\r\nDisplay aspect ratio                     : 16:9\r\nFrame rate                               : 23.976 (23976/1000) fps\r\nColor space                              : YUV\r\nChroma subsampling                       : 4:2:0\r\nBit depth                                : 8 bits\r\nScan type                                : Progressive\r\nCompression mode                         : Lossy\r\nBits/(Pixel*Frame)                       : 0.162\r\nStream size                              : 591 MiB (85%)\r\nWriting library                          : XviD 1.0.3 (UTC 2004-12-20)\r\n\r\nAudio\r\nID                                       : 1\r\nFormat                                   : MPEG Audio\r\nFormat version                           : Version 1\r\nFormat profile                           : Layer 3\r\nMode                                     : Joint stereo\r\nMode extension                           : MS Stereo\r\nCodec ID                                 : 55\r\nCodec ID/Hint                            : MP3\r\nDuration                                 : 1h 44mn\r\nBit rate mode                            : Variable\r\nBit rate                                 : 128 Kbps\r\nChannel(s)                               : 2 channels\r\nSampling rate                            : 48.0 KHz\r\nCompression mode                         : Lossy\r\nDelay relative to video                  : 72ms\r\nStream size                              : 95.9 MiB (14%)\r\nAlignment                                : Split accross interleaves\r\nInterleave, duration                     : 24 ms (0.58 video frame)\r\nInterleave, preload duration             : 340 ms\r\nWriting library                          : LAME3.90.\r\nEncoding settings                        : -m j -V 4 -q 2 -lowpass 17.6 --abr 128","torrent":{"xt":"urn:btih:14555cc2eeb2f10616ddd5889d64af3b1f966003","amp;dn":"See.You.in.YouTube.avi","amp;tr":["udp%3A%2F%2Ftracker.leechers-paradise.org%3A6969","udp%3A%2F%2Fzer0day.ch%3A1337","udp%3A%2F%2Fopen.demonii.com%3A1337","udp%3A%2F%2Ftracker.coppersurfer.tk%3A6969","udp%3A%2F%2Fexodus.desync.com%3A6969"],"infoHash":"14555cc2eeb2f10616ddd5889d64af3b1f966003","infoHashBuffer":{"type":"Buffer","data":[20,85,92,194,238,178,241,6,22,221,213,136,157,100,175,59,31,150,96,3]},"announce":[],"urlList":[]}}